<svg xmlns="http://www.w3.org/2000/svg" width="410" height="404" viewBox="0 0 410 404">
  <defs>
    <linearGradient id="vite-grad" x1="3.52%" x2="80.78%" y1="2.25%" y2="83.31%">
      <stop stop-color="#41D1FF" offset="0%" />
      <stop stop-color="#BD34FE" offset="45%" />
      <stop stop-color="#FFEA83" offset="100%" />
    </linearGradient>
  </defs>
  <path
    fill="url(#vite-grad)"
    d="M399.641 59.525L215.53 388.594c-5.527 9.61-19.438 9.575-24.924-.064L10.58 59.556c-5.943-10.36 3.134-22.944 14.596-20.846l179.131 31.622a14 14 0 0 0 4.831-.067l175.864-30.981c11.429-2.014 20.574 10.278 14.691 20.66z"
  />
  <path
    fill="#fff"
    d="M284.108 69.89L167.07 92.21c-3.478.66-6.238 3.229-6.855 6.596l-27.896 154.85c-.73 4.047 2.886 7.58 6.899 6.872l33.35-5.96c3.496-.625 6.641 2.327 6.025 5.828l-9.92 57.47c-.634 3.675 3.561 6.37 6.618 4.291l20.621-14.185c2.375-1.634 5.65-1.504 7.896.313l53.205 42.613c3.152 2.522 7.86.67 8.488-3.304l35.48-229.223c.62-4.01-2.9-7.468-6.913-6.76z"
  />
</svg>
